<svg width="381.3479919433594" height="136.71399688720703" xmlns="http://www.w3.org/2000/svg" version="1.1">
 <g>
  <title>Layer 1</title>
  <g transform="rotate(-17 190.73 66.61)" opacity="0.15" id="SvgjsG1031" rel="mainfill" name="main_text" fill="#4fc08d" xmlns:name="mainText_mainfill">
   <path d="m23.184,54.73l-10.224,24.552c-0.18,0.432 -0.36,0.432 -0.72,0.432l-1.152,0c-0.396,0 -0.54,-0.036 -0.684,-0.432l-10.224,-24.552c-0.18,-0.396 0,-0.792 0.54,-0.792l1.836,0c0.684,0 0.756,0.504 1.476,2.268l7.632,18.864l7.668,-18.864c0.72,-1.764 0.756,-2.268 1.476,-2.268l1.836,0c0.36,0 0.612,0.18 0.612,0.468c0,0.108 -0.036,0.216 -0.072,0.324zm23.976,-1.224c0.324,0 0.684,0.18 0.684,0.54l0,15.084c0,5.94 -4.68,10.584 -10.62,10.584c-5.724,0 -10.548,-4.824 -10.548,-10.584l0,-15.084c0,-0.288 0.216,-0.54 0.504,-0.54l1.944,0c0.288,0 0.576,0.252 0.576,0.54l0,14.616c0,4.572 3.06,8.172 7.668,8.172c4.752,0 7.488,-3.744 7.488,-8.172l0,-14.616c0,-0.324 0.288,-0.54 0.612,-0.54l1.692,0zm4.68,26.208c-0.396,0 -0.576,-0.18 -0.576,-0.576l0,-24.696c0,-0.36 0.216,-0.504 0.576,-0.504l17.028,0c0.36,0 0.54,0.18 0.54,0.54l0,1.8c0,0.432 -0.18,0.648 -0.576,0.648l-14.544,0l0,4.32l11.556,0c0.324,0 0.54,0.288 0.54,0.612l0,1.8c0,0.324 -0.216,0.612 -0.54,0.612l-11.556,0l0,4.464l11.556,0c0.324,0 0.54,0.252 0.54,0.576l0,1.836c0,0.288 -0.216,0.612 -0.54,0.612l-11.556,0l0,4.968l14.436,0c0.36,0 0.648,0.216 0.648,0.612l0,1.764c0,0.396 -0.216,0.612 -0.612,0.612l-16.92,0zm34.524,0c-0.396,0 -0.576,-0.18 -0.576,-0.576l0,-24.696c0,-0.36 0.216,-0.504 0.576,-0.504l17.028,0c0.36,0 0.54,0.18 0.54,0.54l0,1.8c0,0.432 -0.18,0.648 -0.576,0.648l-14.544,0l0,4.32l11.556,0c0.324,0 0.54,0.288 0.54,0.612l0,1.8c0,0.324 -0.216,0.612 -0.54,0.612l-11.556,0l0,4.464l11.556,0c0.324,0 0.54,0.252 0.54,0.576l0,1.836c0,0.288 -0.216,0.612 -0.54,0.612l-11.556,0l0,4.968l14.436,0c0.36,0 0.648,0.216 0.648,0.612l0,1.764c0,0.396 -0.216,0.612 -0.612,0.612l-16.92,0zm36.576,0l-15.048,0c-0.36,0 -0.54,-0.18 -0.54,-0.54l0,-24.696c0,-0.396 0.252,-0.54 0.576,-0.54l1.836,0c0.36,0 0.54,0.216 0.54,0.54l0,22.248l12.636,0c0.36,0 0.54,0.324 0.54,0.612l0,1.836c-0.036,0.324 -0.216,0.504 -0.54,0.54zm4.536,0c-0.396,0 -0.576,-0.18 -0.576,-0.576l0,-24.696c0,-0.36 0.216,-0.504 0.576,-0.504l17.028,0c0.36,0 0.54,0.18 0.54,0.54l0,1.8c0,0.432 -0.18,0.648 -0.576,0.648l-14.544,0l0,4.32l11.556,0c0.324,0 0.54,0.288 0.54,0.612l0,1.8c0,0.324 -0.216,0.612 -0.54,0.612l-11.556,0l0,4.464l11.556,0c0.324,0 0.54,0.252 0.54,0.576l0,1.836c0,0.288 -0.216,0.612 -0.54,0.612l-11.556,0l0,4.968l14.436,0c0.36,0 0.648,0.216 0.648,0.612l0,1.764c0,0.396 -0.216,0.612 -0.612,0.612l-16.92,0zm37.296,-16.992l3.456,-8.352c0.18,-0.396 0.324,-0.432 0.72,-0.432l1.152,0c0.396,0 0.54,0.036 0.684,0.432l10.224,24.552c0.036,0.108 0.072,0.216 0.072,0.324c0,0.288 -0.216,0.468 -0.576,0.468l-1.836,0c-0.72,0 -0.792,-0.504 -1.476,-2.304l-7.668,-18.828l-7.668,18.828c-0.72,1.8 -0.756,2.304 -1.476,2.304l-1.836,0c-0.396,0 -0.612,-0.18 -0.612,-0.468c0,-0.108 0.036,-0.216 0.072,-0.324l5.22,-12.492c-1.08,-2.628 -2.16,-5.256 -3.168,-7.884l-7.668,18.864c-0.72,1.8 -0.792,2.304 -1.476,2.304l-1.836,0c-0.396,0 -0.612,-0.18 -0.612,-0.468c0,-0.108 0,-0.216 0.072,-0.324l10.224,-24.588c0.144,-0.324 0.324,-0.396 0.684,-0.396l1.152,0c0.396,0 0.54,0 0.72,0.432l3.456,8.352zm20.304,16.992c-0.396,0 -0.576,-0.18 -0.576,-0.576l0,-24.696c0,-0.36 0.216,-0.504 0.576,-0.504l17.028,0c0.36,0 0.54,0.18 0.54,0.54l0,1.8c0,0.432 -0.18,0.648 -0.576,0.648l-14.544,0l0,4.32l11.556,0c0.324,0 0.54,0.288 0.54,0.612l0,1.8c0,0.324 -0.216,0.612 -0.54,0.612l-11.556,0l0,4.464l11.556,0c0.324,0 0.54,0.252 0.54,0.576l0,1.836c0,0.288 -0.216,0.612 -0.54,0.612l-11.556,0l0,4.968l14.436,0c0.36,0 0.648,0.216 0.648,0.612l0,1.764c0,0.396 -0.216,0.612 -0.612,0.612l-16.92,0zm42.228,-25.812l0.18,0c0.54,0 0.684,0.252 0.684,0.576l-0.18,24.696c0,0.36 -0.216,0.54 -0.648,0.54l-2.304,0l-15.984,-21.6l0,13.392l6.3,0.036c0.324,0 0.54,0.252 0.54,0.576l0,1.836c0,0.324 -0.216,0.612 -0.576,0.612l-8.712,-0.036c-0.36,0 -0.54,-0.18 -0.54,-0.468l0,-19.692c0,-0.324 0.252,-0.576 0.612,-0.576l2.484,0c0.252,0 0.432,0.108 0.576,0.288l15.3,20.628l0.144,-20.268c0,-0.288 0.252,-0.54 0.54,-0.54l1.584,0zm-8.82,22.788c0.324,0 0.54,0.252 0.54,0.576l0,1.836c0,0.324 -0.252,0.612 -0.576,0.612l-11.844,0c-0.324,0 -0.54,-0.18 -0.54,-0.54l0,-1.836c0,-0.36 0.18,-0.648 0.576,-0.648l11.844,0zm27.072,-22.752c0.324,0 0.576,0.216 0.648,0.54l0,1.764c0,0.432 -0.252,0.684 -0.648,0.684l-7.56,0l0,22.212c0,0.288 -0.252,0.576 -0.612,0.576l-1.8,0c-0.324,0 -0.576,-0.252 -0.576,-0.576l0,-24.66c0,-0.324 0.252,-0.54 0.576,-0.54l9.972,0zm29.412,0.432c0,0 10.584,24.444 10.584,24.48c0.108,0.252 0.108,0.324 0.108,0.432c0,0.288 -0.216,0.432 -0.612,0.432l-21.78,0c-0.396,0 -0.684,-0.216 -0.684,-0.54c0,-0.108 0,-0.216 0.072,-0.324l10.728,-24.48c0.18,-0.36 0.36,-0.468 0.756,-0.468l0.108,0c0.468,0 0.54,0.108 0.72,0.468zm-0.792,5.148l-7.308,17.136l14.58,0l-7.272,-17.136zm15.48,20.196c-0.324,0 -0.576,-0.144 -0.576,-0.504l0,-24.66c0,-0.396 0.18,-0.612 0.576,-0.612l8.28,0c7.128,0 12.996,5.652 12.996,12.924c0,7.416 -6.192,12.852 -12.996,12.852l-8.28,0zm2.376,-22.824l0,19.872l5.796,0c5.76,0 10.116,-4.572 10.116,-10.188c0,-5.76 -4.608,-9.684 -10.008,-9.684l-5.904,0zm38.628,5.832l3.456,-8.352c0.18,-0.396 0.324,-0.432 0.72,-0.432l1.152,0c0.396,0 0.54,0.036 0.684,0.432l10.224,24.552c0.036,0.108 0.072,0.216 0.072,0.324c0,0.288 -0.216,0.468 -0.576,0.468l-1.836,0c-0.72,0 -0.792,-0.504 -1.476,-2.304l-7.668,-18.828l-7.668,18.828c-0.72,1.8 -0.756,2.304 -1.476,2.304l-1.836,0c-0.396,0 -0.612,-0.18 -0.612,-0.468c0,-0.108 0.036,-0.216 0.072,-0.324l5.22,-12.492c-1.08,-2.628 -2.16,-5.256 -3.168,-7.884l-7.668,18.864c-0.72,1.8 -0.792,2.304 -1.476,2.304l-1.836,0c-0.396,0 -0.612,-0.18 -0.612,-0.468c0,-0.108 0,-0.216 0.072,-0.324l10.224,-24.588c0.144,-0.324 0.324,-0.396 0.684,-0.396l1.152,0c0.396,0 0.54,0 0.72,0.432l3.456,8.352zm20.268,-8.784l1.872,0c0.468,0 0.612,0.252 0.612,0.576l0,24.66c0,0.36 -0.252,0.54 -0.612,0.54l-1.872,0c-0.36,0 -0.54,-0.18 -0.54,-0.54l0,-24.696c0,-0.324 0.252,-0.54 0.54,-0.54zm29.556,-0.036l0.18,0c0.54,0 0.684,0.252 0.684,0.576l-0.18,24.696c0,0.36 -0.216,0.54 -0.648,0.54l-2.304,0l-15.984,-21.6l0,13.392l6.3,0.036c0.324,0 0.54,0.252 0.54,0.576l0,1.836c0,0.324 -0.216,0.612 -0.576,0.612l-8.712,-0.036c-0.36,0 -0.54,-0.18 -0.54,-0.468l0,-19.692c0,-0.324 0.252,-0.576 0.612,-0.576l2.484,0c0.252,0 0.432,0.108 0.576,0.288l15.3,20.628l0.144,-20.268c0,-0.288 0.252,-0.54 0.54,-0.54l1.584,0zm-8.82,22.788c0.324,0 0.54,0.252 0.54,0.576l0,1.836c0,0.324 -0.252,0.612 -0.576,0.612l-11.844,0c-0.324,0 -0.54,-0.18 -0.54,-0.54l0,-1.836c0,-0.36 0.18,-0.648 0.576,-0.648l11.844,0z" id="svg_1"/>
  </g>
  <g id="SvgjsG1032" transform="translate(137.397 0) scale(1.99467 1.99467)" rel="inversefill" name="monogram_container" fill="#4fc08d" xmlns:name="monogram_container_inversefill">
   <g id="46bfeca5-5fe1-46b7-b39f-b07f8c93ed2d">
    <g id="19289a54-b124-48e4-a4f1-c06206842ce4">
     <path d="m30.41,42.88a41.74,41.74 0 0 1 -13.71,4.27a15.92,15.92 0 0 1 -9.3,-1.56a12.77,12.77 0 0 1 -5.39,-5.84a22.19,22.19 0 0 1 -2,-8.58a37,37 0 0 1 0.94,-9.78a41.53,41.53 0 0 1 3.36,-9.43a29.35,29.35 0 0 1 5.29,-7.53a14.94,14.94 0 0 1 6.71,-4.1a12.74,12.74 0 0 1 3.5,-0.31a28.86,28.86 0 0 1 4.3,0.5c1.53,0.28 3.14,0.67 4.78,1.15s3.3,1 4.94,1.63s3.24,1.27 4.77,2s3,1.4 4.28,2.12a37.53,37.53 0 0 1 3.46,2.11a14.17,14.17 0 0 1 2.33,2a21.77,21.77 0 0 1 3.33,4.65a12.45,12.45 0 0 1 1.37,4.39a10.33,10.33 0 0 1 -0.41,4.16a13.77,13.77 0 0 1 -2,3.95a23.78,23.78 0 0 1 -3.44,3.77a43,43 0 0 1 -4.69,3.62c-1.75,1.19 -3.68,2.35 -5.76,3.5s-4.31,2.18 -6.66,3.31z" id="svg_2"/>
    </g>
   </g>
  </g>
  <g id="SvgjsG1033" rel="mainfill" name="monogram" fill="#36495d" xmlns:name="symbol_mainfill">
   <path d="m186.66169,69.28599q-0.427,0 -0.488,-0.122q-0.793,-1.342 -1.586,-2.806q-0.061,-1.403 -0.6405,-2.5925t-1.2505,-2.4095q-0.427,-0.854 -0.427,-1.525q0.061,-0.732 -0.3965,-1.2505t-0.6405,-1.1895t-0.183,-1.342t-0.488,-1.281q-0.488,-0.488 -0.427,-0.915q0.061,-0.915 -0.366,-1.6165t-0.732,-1.4335q-0.244,-0.61 -0.244,-1.3115t-0.488,-1.2505q-0.488,-0.61 -0.427,-1.3115t-0.244,-1.3115t-0.6405,-1.159t-0.3355,-1.342q0.061,-0.244 -0.0305,-0.488t-0.2135,-0.549q-0.122,-0.366 -0.3355,-0.7015t-0.3355,-0.7625q-0.122,-0.366 -0.1525,-0.7625t-0.0305,-0.7625q-0.305,-0.427 -0.5185,-0.7625t-0.4575,-0.7015q-0.061,-0.427 -0.061,-0.8235t-0.061,-0.8235q-0.366,-0.793 -0.915,-1.5555t-0.061,-1.7385q-0.366,-0.488 -0.61,-0.8845t-0.549,-0.8845q0,-0.305 -0.0305,-0.7015t0.0915,-0.7625q0.122,-0.915 1.037,-1.037q0.244,0 0.4575,-0.183t0.3965,-0.305q-0.244,-0.305 -0.549,-0.3965t-0.6405,-0.0915t-0.7015,-0.0305t-0.671,-0.2135q-0.61,-0.488 -0.549,-1.159l0.122,-1.342q0.244,-0.122 0.4575,-0.3355t0.4575,-0.2135q1.22,-0.061 2.44,-0.0305t2.379,0.0305q0.244,0.305 0.4575,0.488t0.2745,0.427q0.122,0.671 0.488,0.915t1.037,0.305q0.305,0 0.549,0.0305t0.549,0.0305q0.244,0.305 0.366,0.5185t0.183,0.427t0.122,0.5795t0.122,0.976q0.366,0.549 0.976,1.525q0.061,0.549 0.061,1.22t0.061,1.403q0.671,1.403 1.4335,2.806t0.8235,3.05q0.427,0.61 0.7625,1.159t0.2135,1.342q-0.061,0.61 0.305,1.037t0.549,0.915t0.2135,1.037t0.1525,1.098q0.244,0.366 0.4575,0.7015t0.3965,0.7015q0,0.61 -0.1525,1.0065t-0.8845,0.5185q-0.244,0.061 -0.3965,0.244t-0.3965,0.305q0.854,0.427 1.3115,0.671t0.7625,0.5185t0.488,0.6405l0.488,0.976q0.305,0.488 0.5185,0.9455t0.5185,0.9455q0.244,1.037 0.122,2.1655t0.366,2.1655q0.793,-0.976 1.1895,-1.7995t0.5795,-1.7385q0.061,-0.305 0.0915,-0.549t0.1525,-0.549q0.122,-0.366 0.366,-0.7015t0.427,-0.7015q0.061,-0.671 0.0915,-1.342t0.0915,-1.281q0.305,-0.549 0.61,-1.0675t0.305,-1.0065q0.122,-0.854 0.488,-1.5555t0.61,-1.4945q0.183,-0.793 0.3355,-1.5555t0.6405,-1.4945q0.183,-0.244 0.244,-0.5795t0.061,-0.7015t0.061,-0.671t0.305,-0.61q0.488,-0.61 0.549,-1.281t0.183,-1.342q0.122,-0.366 0.3965,-0.732t0.5795,-0.915q0,-0.488 0.0305,-1.1285t0.0915,-1.4335q0.488,-0.915 0.9455,-1.891t1.1285,-2.196q0,-0.549 0.061,-1.281t0.122,-1.586q0.244,-0.122 0.4575,-0.3355t0.4575,-0.2135q2.074,-0.061 4.1175,-0.061l4.0565,0q0.793,0.549 0.671,1.22t-0.061,1.281l-0.915,0.732q-0.915,0 -1.8605,0.0305t-1.9215,0.0915q-0.122,0 -0.427,0.305q0.122,0.183 0.305,0.3355t0.305,0.3355l2.684,0q0.427,0.305 0.6405,0.6405t0.0915,0.7015q-0.488,1.037 -1.0065,1.9825t-1.0675,1.9825q0,0.61 -0.0305,1.281t-0.0915,1.342q-0.305,0.61 -0.7015,1.159t-0.3355,1.281q0.122,0.793 -0.3355,1.3115t-0.6405,1.1895q-0.122,0.671 -0.5185,1.22t-0.7015,1.22l0,2.867q0,0.061 -0.427,0.3965t-0.549,0.8235q-0.244,0.976 -0.915,1.952q-0.061,0.122 -0.1525,0.244t-0.0915,0.244q0.183,0.61 0,1.098t-0.4575,0.976t-0.5185,0.976t-0.183,1.037q0.061,0.793 -0.366,1.3115t-0.732,1.1895l0,1.525q-0.305,0.671 -0.7625,1.1895t-0.3355,1.3115q0.122,0.671 -0.183,1.037q-1.098,1.342 -0.976,3.05q-1.037,1.525 -1.22,3.599q-0.488,0.671 -0.8235,1.342t-0.3965,1.464l-6.954,0q-0.305,0 -0.549,-0.061t-0.549,-0.183q-0.488,-0.366 -0.4575,-0.915t-0.0915,-1.037l1.525,0q0.671,-0.61 1.3725,-0.8845t1.3725,-0.6405l-0.915,-1.83q0.183,-0.122 0.3965,-0.183t0.3965,-0.183q0.061,0 0.061,-0.122t-0.061,-0.183q-0.244,-0.244 -0.366,-0.061t-0.366,0.854l-1.525,0q-0.61,0.671 -0.8235,1.464t-0.8845,1.342q-0.061,0.061 -0.0305,0.2135t-0.0305,0.2745zm-8.906,-40.138q-0.549,-0.793 -1.342,-0.61q-0.671,0.183 -0.427,0.61q0.122,0.427 0.366,0.305q0.366,-0.061 0.7015,-0.122t0.7015,-0.183zm9.089,34.038q0.244,0.122 0.427,0.244t0.427,0.244q0.305,0.122 0.549,0t0.305,-0.427q0,-0.244 -0.244,-0.3965t-0.549,-0.0915q-0.244,0.061 -0.4575,0.183t-0.4575,0.244zm15.616,-20.069q-0.183,0.183 -0.183,0.305q0.122,0.305 0.305,0.305q0.305,0 0.305,-0.305q0.122,-0.488 -0.427,-0.305zm-24.827,-4.148q-0.122,-0.122 -0.183,-0.244t-0.122,-0.122q-0.854,0.305 -0.061,0.671q0.061,0.061 0.1525,-0.061t0.2135,-0.244zm27.267,-6.283q0.244,-0.244 0.366,-0.305q-0.122,-0.122 -0.183,-0.2135t-0.183,-0.1525q-0.488,0 -0.305,0.488q0.061,0.061 0.305,0.183z" id="svg_3"/>
  </g>
  <text x="51.674" y="55.35699" id="svg_4" fill="#000000" stroke-width="0" font-size="24" font-family="Noto Sans JP" text-anchor="start" xml:space="preserve"/>
  <text font-style="normal" font-weight="normal" filter="url(#svg_5_blur)" xml:space="preserve" text-anchor="start" font-family="'Exo'" font-size="29" id="svg_5" y="121.35699" x="8.22406" stroke-width="0" stroke="#000" fill="#08c04f">Vue Element Admin Simlify</text>
 </g>
 <defs>
  <filter id="svg_5_blur">
   <feGaussianBlur stdDeviation="0" in="SourceGraphic"/>
  </filter>
 </defs>
</svg>